{
	"asset":{
		"generator":"Khronos glTF Blender I/O v4.2.57",
		"version":"2.0"
	},
	"scene":0,
	"scenes":[
		{
			"name":"Scene",
			"nodes":[
				1
			]
		}
	],
	"nodes":[
		{
			"mesh":0,
			"name":"pCube3.001"
		},
		{
			"children":[
				0
			],
			"name":"pCube3",
			"rotation":[
				-0.19887509942054749,
				-0.0003714506747201085,
				0,
				0.9800248146057129
			],
			"translation":[
				-17.254398345947266,
				14.19372844696045,
				17.52086639404297
			]
		}
	],
	"materials":[
		{
			"name":"standardSurface2.6",
			"occlusionTexture":{
				"index":0
			},
			"pbrMetallicRoughness":{
				"baseColorTexture":{
					"index":1
				},
				"metallicRoughnessTexture":{
					"index":0
				}
			}
		}
	],
	"meshes":[
		{
			"name":"pCube3",
			"primitives":[
				{
					"attributes":{
						"POSITION":0,
						"NORMAL":1,
						"TEXCOORD_0":2
					},
					"indices":3,
					"material":0
				}
			]
		}
	],
	"textures":[
		{
			"sampler":0,
			"source":0
		},
		{
			"sampler":0,
			"source":1
		}
	],
	"images":[
		{
			"mimeType":"image/jpeg",
			"name":"Image_31",
			"uri":"Image_31.jpg"
		},
		{
			"mimeType":"image/jpeg",
			"name":"Image_30",
			"uri":"Image_30.jpg"
		}
	],
	"accessors":[
		{
			"bufferView":0,
			"componentType":5126,
			"count":6264,
			"max":[
				4.278629302978516,
				3.7154669761657715,
				1.4592461585998535
			],
			"min":[
				-4.278400421142578,
				-3.792239189147949,
				-1.258340835571289
			],
			"type":"VEC3"
		},
		{
			"bufferView":1,
			"componentType":5126,
			"count":6264,
			"type":"VEC3"
		},
		{
			"bufferView":2,
			"componentType":5126,
			"count":6264,
			"type":"VEC2"
		},
		{
			"bufferView":3,
			"componentType":5123,
			"count":24000,
			"type":"SCALAR"
		}
	],
	"bufferViews":[
		{
			"buffer":0,
			"byteLength":75168,
			"byteOffset":0,
			"target":34962
		},
		{
			"buffer":0,
			"byteLength":75168,
			"byteOffset":75168,
			"target":34962
		},
		{
			"buffer":0,
			"byteLength":50112,
			"byteOffset":150336,
			"target":34962
		},
		{
			"buffer":0,
			"byteLength":48000,
			"byteOffset":200448,
			"target":34963
		}
	],
	"samplers":[
		{
			"magFilter":9729,
			"minFilter":9987
		}
	],
	"buffers":[
		{
			"byteLength":248448,
			"uri":"display.bin"
		}
	]
}
