{
	"asset":{
		"generator":"Khronos glTF Blender I/O v4.2.57",
		"version":"2.0"
	},
	"scene":0,
	"scenes":[
		{
			"name":"Scene",
			"nodes":[
				0,
				15,
				16,
				17,
				18,
				19,
				20,
				21
			]
		}
	],
	"nodes":[
		{
			"name":"pCube3",
			"rotation":[
				-0.19887509942054749,
				-0.0003714506747201085,
				0,
				0.9800248146057129
			],
			"translation":[
				-17.254398345947266,
				14.19372844696045,
				17.52086639404297
			]
		},
		{
			"mesh":0,
			"name":"pCube5.001",
			"translation":[
				-7.767751216888428,
				-196.99209594726562,
				-0.4325302541255951
			]
		},
		{
			"children":[
				1
			],
			"name":"pCube5",
			"scale":[
				1.7351527214050293,
				0.06836990267038345,
				3.02951717376709
			],
			"translation":[
				12.438337326049805,
				13.324888229370117,
				-1.9618784189224243
			]
		},
		{
			"mesh":1,
			"name":"polySurface11.001",
			"translation":[
				-0.027459299191832542,
				-30.562227249145508,
				-1.0034284591674805
			]
		},
		{
			"children":[
				3
			],
			"name":"polySurface11",
			"scale":[
				5.022977828979492,
				0.37753599882125854,
				5.022977828979492
			],
			"translation":[
				-0.9019696712493896,
				11.394899368286133,
				1.767961025238037
			]
		},
		{
			"mesh":2,
			"name":"polySurface17.001",
			"translation":[
				-0.02745930477976799,
				-30.380027770996094,
				-1.0034284591674805
			]
		},
		{
			"children":[
				5
			],
			"name":"polySurface17",
			"scale":[
				5.022977828979492,
				0.37753599882125854,
				5.022977828979492
			],
			"translation":[
				-0.9019696712493896,
				11.3261137008667,
				1.767961025238037
			]
		},
		{
			"mesh":3,
			"name":"polySurface3.001",
			"translation":[
				-0.11811096966266632,
				-0.058680176734924316,
				-0.36902767419815063
			]
		},
		{
			"children":[
				7
			],
			"name":"polySurface3",
			"scale":[
				4.947210311889648,
				3.9056923389434814,
				3.9056923389434814
			],
			"translation":[
				-0.45557713508605957,
				0.08574578166007996,
				-1.830927848815918
			]
		},
		{
			"mesh":4,
			"name":"polySurface5.001",
			"translation":[
				-0.027459289878606796,
				-30.380027770996094,
				-1.0034284591674805
			]
		},
		{
			"children":[
				9
			],
			"name":"polySurface5",
			"scale":[
				5.022977828979492,
				0.37753599882125854,
				5.022977828979492
			],
			"translation":[
				-0.9019696712493896,
				11.3261137008667,
				1.767961025238037
			]
		},
		{
			"mesh":5,
			"name":"polySurface7.001",
			"translation":[
				-0.11811096966266632,
				-0.05868028849363327,
				-0.36902767419815063
			]
		},
		{
			"children":[
				11
			],
			"name":"polySurface7",
			"scale":[
				4.947210311889648,
				3.9056923389434814,
				3.9056923389434814
			],
			"translation":[
				-0.45557713508605957,
				0.08574578166007996,
				-1.830927848815918
			]
		},
		{
			"mesh":6,
			"name":"polySurface8.001",
			"translation":[
				-0.11811096966266632,
				-0.05868028849363327,
				-0.36902767419815063
			]
		},
		{
			"children":[
				13
			],
			"name":"polySurface8",
			"scale":[
				4.947210311889648,
				3.9056923389434814,
				3.9056923389434814
			],
			"translation":[
				-0.45557713508605957,
				0.08574578166007996,
				-1.830927848815918
			]
		},
		{
			"children":[
				2,
				4,
				6,
				8,
				10,
				12,
				14
			],
			"name":"RootNode",
			"translation":[
				1.039897084236145,
				0.14344120025634766,
				3.2722363471984863
			]
		},
		{
			"mesh":7,
			"name":"pCube12.001"
		},
		{
			"mesh":8,
			"name":"polySurface15.001"
		},
		{
			"mesh":9,
			"name":"polySurface21.001",
			"translation":[
				0,
				-0.6919902563095093,
				1.544313669204712
			]
		},
		{
			"mesh":10,
			"name":"polySurface22.001"
		},
		{
			"mesh":11,
			"name":"polySurface24.001"
		},
		{
			"mesh":12,
			"name":"polySurface25.001"
		}
	],
	"materials":[
		{
			"name":"standardSurface2.7",
			"occlusionTexture":{
				"index":0
			},
			"pbrMetallicRoughness":{
				"baseColorTexture":{
					"index":1
				},
				"metallicRoughnessTexture":{
					"index":0
				}
			}
		},
		{
			"name":"standardSurface2.5",
			"occlusionTexture":{
				"index":2
			},
			"pbrMetallicRoughness":{
				"baseColorTexture":{
					"index":3
				},
				"metallicRoughnessTexture":{
					"index":2
				}
			}
		},
		{
			"name":"standardSurface2.4",
			"occlusionTexture":{
				"index":4
			},
			"pbrMetallicRoughness":{
				"baseColorTexture":{
					"index":5
				},
				"metallicRoughnessTexture":{
					"index":4
				}
			}
		},
		{
			"name":"standardSurface2",
			"occlusionTexture":{
				"index":6
			},
			"pbrMetallicRoughness":{
				"baseColorTexture":{
					"index":7
				},
				"metallicRoughnessTexture":{
					"index":6
				}
			}
		},
		{
			"name":"standardSurface2.3",
			"occlusionTexture":{
				"index":8
			},
			"pbrMetallicRoughness":{
				"baseColorTexture":{
					"index":9
				},
				"metallicRoughnessTexture":{
					"index":8
				}
			}
		},
		{
			"name":"standardSurface2.1",
			"normalTexture":{
				"index":10
			},
			"occlusionTexture":{
				"index":11
			},
			"pbrMetallicRoughness":{
				"baseColorTexture":{
					"index":12
				},
				"metallicRoughnessTexture":{
					"index":11
				}
			}
		},
		{
			"name":"standardSurface2.2",
			"occlusionTexture":{
				"index":13
			},
			"pbrMetallicRoughness":{
				"baseColorTexture":{
					"index":14
				},
				"metallicRoughnessTexture":{
					"index":13
				}
			}
		},
		{
			"name":"standardSurface2.10",
			"occlusionTexture":{
				"index":15
			},
			"pbrMetallicRoughness":{
				"baseColorTexture":{
					"index":16
				},
				"metallicRoughnessTexture":{
					"index":15
				}
			}
		},
		{
			"name":"standardSurface2.11",
			"occlusionTexture":{
				"index":17
			},
			"pbrMetallicRoughness":{
				"baseColorTexture":{
					"index":18
				},
				"metallicRoughnessTexture":{
					"index":17
				}
			}
		},
		{
			"name":"standardSurface2.8",
			"normalTexture":{
				"index":19
			},
			"occlusionTexture":{
				"index":20
			},
			"pbrMetallicRoughness":{
				"baseColorTexture":{
					"index":21
				},
				"metallicRoughnessTexture":{
					"index":20
				}
			}
		},
		{
			"name":"standardSurface2.9",
			"normalTexture":{
				"index":22
			},
			"occlusionTexture":{
				"index":23
			},
			"pbrMetallicRoughness":{
				"baseColorTexture":{
					"index":24
				},
				"metallicRoughnessTexture":{
					"index":23
				}
			}
		},
		{
			"name":"standardSurface2.12",
			"occlusionTexture":{
				"index":25
			},
			"pbrMetallicRoughness":{
				"baseColorTexture":{
					"index":26
				},
				"metallicRoughnessTexture":{
					"index":25
				}
			}
		},
		{
			"name":"standardSurface2.13",
			"occlusionTexture":{
				"index":27
			},
			"pbrMetallicRoughness":{
				"baseColorTexture":{
					"index":28
				},
				"metallicRoughnessTexture":{
					"index":27
				}
			}
		}
	],
	"meshes":[
		{
			"name":"pCube5",
			"primitives":[
				{
					"attributes":{
						"POSITION":0,
						"NORMAL":1,
						"TEXCOORD_0":2
					},
					"indices":3,
					"material":0
				}
			]
		},
		{
			"name":"polySurface11",
			"primitives":[
				{
					"attributes":{
						"POSITION":4,
						"NORMAL":5,
						"TEXCOORD_0":6
					},
					"indices":7,
					"material":1
				}
			]
		},
		{
			"name":"polySurface17",
			"primitives":[
				{
					"attributes":{
						"POSITION":8,
						"NORMAL":9,
						"TEXCOORD_0":10
					},
					"indices":11,
					"material":2
				}
			]
		},
		{
			"name":"polySurface3",
			"primitives":[
				{
					"attributes":{
						"POSITION":12,
						"NORMAL":13,
						"TEXCOORD_0":14
					},
					"indices":15,
					"material":3
				}
			]
		},
		{
			"name":"polySurface5",
			"primitives":[
				{
					"attributes":{
						"POSITION":16,
						"NORMAL":17,
						"TEXCOORD_0":18
					},
					"indices":19,
					"material":4
				}
			]
		},
		{
			"name":"polySurface7",
			"primitives":[
				{
					"attributes":{
						"POSITION":20,
						"NORMAL":21,
						"TEXCOORD_0":22
					},
					"indices":23,
					"material":5
				}
			]
		},
		{
			"name":"polySurface8",
			"primitives":[
				{
					"attributes":{
						"POSITION":24,
						"NORMAL":25,
						"TEXCOORD_0":26
					},
					"indices":27,
					"material":6
				}
			]
		},
		{
			"name":"pCube12",
			"primitives":[
				{
					"attributes":{
						"POSITION":28,
						"NORMAL":29,
						"TEXCOORD_0":30
					},
					"indices":31,
					"material":7
				}
			]
		},
		{
			"name":"polySurface15",
			"primitives":[
				{
					"attributes":{
						"POSITION":32,
						"NORMAL":33,
						"TEXCOORD_0":34
					},
					"indices":35,
					"material":8
				}
			]
		},
		{
			"name":"polySurface21",
			"primitives":[
				{
					"attributes":{
						"POSITION":36,
						"NORMAL":37,
						"TEXCOORD_0":38
					},
					"indices":39,
					"material":9
				}
			]
		},
		{
			"name":"polySurface22",
			"primitives":[
				{
					"attributes":{
						"POSITION":40,
						"NORMAL":41,
						"TEXCOORD_0":42
					},
					"indices":43,
					"material":10
				}
			]
		},
		{
			"name":"polySurface24",
			"primitives":[
				{
					"attributes":{
						"POSITION":44,
						"NORMAL":45,
						"TEXCOORD_0":46
					},
					"indices":47,
					"material":11
				}
			]
		},
		{
			"name":"polySurface25",
			"primitives":[
				{
					"attributes":{
						"POSITION":48,
						"NORMAL":49,
						"TEXCOORD_0":50
					},
					"indices":51,
					"material":12
				}
			]
		}
	],
	"textures":[
		{
			"sampler":0,
			"source":0
		},
		{
			"sampler":0,
			"source":1
		},
		{
			"sampler":0,
			"source":2
		},
		{
			"sampler":0,
			"source":3
		},
		{
			"sampler":0,
			"source":4
		},
		{
			"sampler":0,
			"source":5
		},
		{
			"sampler":0,
			"source":6
		},
		{
			"sampler":0,
			"source":7
		},
		{
			"sampler":0,
			"source":8
		},
		{
			"sampler":0,
			"source":9
		},
		{
			"sampler":0,
			"source":10
		},
		{
			"sampler":0,
			"source":11
		},
		{
			"sampler":0,
			"source":12
		},
		{
			"sampler":0,
			"source":13
		},
		{
			"sampler":0,
			"source":14
		},
		{
			"sampler":0,
			"source":15
		},
		{
			"sampler":0,
			"source":16
		},
		{
			"sampler":0,
			"source":17
		},
		{
			"sampler":0,
			"source":18
		},
		{
			"sampler":0,
			"source":19
		},
		{
			"sampler":0,
			"source":20
		},
		{
			"sampler":0,
			"source":21
		},
		{
			"sampler":0,
			"source":22
		},
		{
			"sampler":0,
			"source":23
		},
		{
			"sampler":0,
			"source":24
		},
		{
			"sampler":0,
			"source":25
		},
		{
			"sampler":0,
			"source":26
		},
		{
			"sampler":0,
			"source":27
		},
		{
			"sampler":0,
			"source":28
		}
	],
	"images":[
		{
			"mimeType":"image/jpeg",
			"name":"Image_34",
			"uri":"Image_34.jpg"
		},
		{
			"mimeType":"image/jpeg",
			"name":"Image_33",
			"uri":"Image_33.jpg"
		},
		{
			"mimeType":"image/jpeg",
			"name":"Image_28",
			"uri":"Image_28.jpg"
		},
		{
			"mimeType":"image/jpeg",
			"name":"Image_27",
			"uri":"Image_27.jpg"
		},
		{
			"mimeType":"image/jpeg",
			"name":"Image_25",
			"uri":"Image_25.jpg"
		},
		{
			"mimeType":"image/jpeg",
			"name":"Image_24",
			"uri":"Image_24.jpg"
		},
		{
			"mimeType":"image/jpeg",
			"name":"Image_1",
			"uri":"Image_1.jpg"
		},
		{
			"mimeType":"image/jpeg",
			"name":"Image_0",
			"uri":"Image_0.jpg"
		},
		{
			"mimeType":"image/jpeg",
			"name":"Image_22",
			"uri":"Image_22.jpg"
		},
		{
			"mimeType":"image/jpeg",
			"name":"Image_21",
			"uri":"Image_21.jpg"
		},
		{
			"mimeType":"image/jpeg",
			"name":"Image_5",
			"uri":"Image_5.jpg"
		},
		{
			"mimeType":"image/jpeg",
			"name":"Image_4",
			"uri":"Image_4.jpg"
		},
		{
			"mimeType":"image/jpeg",
			"name":"Image_3",
			"uri":"Image_3.jpg"
		},
		{
			"mimeType":"image/jpeg",
			"name":"Image_19",
			"uri":"Image_19.jpg"
		},
		{
			"mimeType":"image/jpeg",
			"name":"Image_18",
			"uri":"Image_18.jpg"
		},
		{
			"mimeType":"image/jpeg",
			"name":"Image_7",
			"uri":"Image_7.jpg"
		},
		{
			"mimeType":"image/jpeg",
			"name":"Image_6",
			"uri":"Image_6.jpg"
		},
		{
			"mimeType":"image/jpeg",
			"name":"Image_10",
			"uri":"Image_10.jpg"
		},
		{
			"mimeType":"image/jpeg",
			"name":"Image_9",
			"uri":"Image_9.jpg"
		},
		{
			"mimeType":"image/jpeg",
			"name":"Image_38",
			"uri":"Image_38.jpg"
		},
		{
			"mimeType":"image/jpeg",
			"name":"Image_37",
			"uri":"Image_37.jpg"
		},
		{
			"mimeType":"image/jpeg",
			"name":"Image_36",
			"uri":"Image_36.jpg"
		},
		{
			"mimeType":"image/jpeg",
			"name":"Image_41",
			"uri":"Image_41.jpg"
		},
		{
			"mimeType":"image/jpeg",
			"name":"Image_40",
			"uri":"Image_40.jpg"
		},
		{
			"mimeType":"image/jpeg",
			"name":"Image_39",
			"uri":"Image_39.jpg"
		},
		{
			"mimeType":"image/jpeg",
			"name":"Image_13",
			"uri":"Image_13.jpg"
		},
		{
			"mimeType":"image/jpeg",
			"name":"Image_12",
			"uri":"Image_12.jpg"
		},
		{
			"mimeType":"image/jpeg",
			"name":"Image_16",
			"uri":"Image_16.jpg"
		},
		{
			"mimeType":"image/jpeg",
			"name":"Image_15",
			"uri":"Image_15.jpg"
		}
	],
	"accessors":[
		{
			"bufferView":0,
			"componentType":5126,
			"count":698,
			"max":[
				12.374329566955566,
				226.93905639648438,
				4.710011959075928
			],
			"min":[
				-0.4791404604911804,
				190.16322326660156,
				-3.8447518348693848
			],
			"type":"VEC3"
		},
		{
			"bufferView":1,
			"componentType":5126,
			"count":698,
			"type":"VEC3"
		},
		{
			"bufferView":2,
			"componentType":5126,
			"count":698,
			"type":"VEC2"
		},
		{
			"bufferView":3,
			"componentType":5123,
			"count":3120,
			"type":"SCALAR"
		},
		{
			"bufferView":4,
			"componentType":5126,
			"count":17554,
			"max":[
				2.7283637523651123,
				47.400299072265625,
				3.377009630203247
			],
			"min":[
				-4.249823570251465,
				35.431739807128906,
				-3.401007890701294
			],
			"type":"VEC3"
		},
		{
			"bufferView":5,
			"componentType":5126,
			"count":17554,
			"type":"VEC3"
		},
		{
			"bufferView":6,
			"componentType":5126,
			"count":17554,
			"type":"VEC2"
		},
		{
			"bufferView":7,
			"componentType":5123,
			"count":47328,
			"type":"SCALAR"
		},
		{
			"bufferView":8,
			"componentType":5126,
			"count":1117,
			"max":[
				4.441751003265381,
				35.48583984375,
				3.2431015968322754
			],
			"min":[
				-4.249823570251465,
				31.37480926513672,
				-3.2738547325134277
			],
			"type":"VEC3"
		},
		{
			"bufferView":9,
			"componentType":5126,
			"count":1117,
			"type":"VEC3"
		},
		{
			"bufferView":10,
			"componentType":5126,
			"count":1117,
			"type":"VEC2"
		},
		{
			"bufferView":11,
			"componentType":5123,
			"count":4200,
			"type":"SCALAR"
		},
		{
			"bufferView":12,
			"componentType":5126,
			"count":644,
			"max":[
				4.523930549621582,
				-3.0099987983703613,
				5.843523979187012
			],
			"min":[
				-4.2212934494018555,
				-4.285243988037109,
				5.007595062255859
			],
			"type":"VEC3"
		},
		{
			"bufferView":13,
			"componentType":5126,
			"count":644,
			"type":"VEC3"
		},
		{
			"bufferView":14,
			"componentType":5126,
			"count":644,
			"type":"VEC2"
		},
		{
			"bufferView":15,
			"componentType":5123,
			"count":2100,
			"type":"SCALAR"
		},
		{
			"bufferView":16,
			"componentType":5126,
			"count":4700,
			"max":[
				4.441751003265381,
				32.85441589355469,
				4.282397747039795
			],
			"min":[
				-4.249823093414307,
				26.10456085205078,
				-3.2738544940948486
			],
			"type":"VEC3"
		},
		{
			"bufferView":17,
			"componentType":5126,
			"count":4700,
			"type":"VEC3"
		},
		{
			"bufferView":18,
			"componentType":5126,
			"count":4700,
			"type":"VEC2"
		},
		{
			"bufferView":19,
			"componentType":5123,
			"count":19152,
			"type":"SCALAR"
		},
		{
			"bufferView":20,
			"componentType":5126,
			"count":5300,
			"max":[
				4.49080228805542,
				1.692620038986206,
				5.0128021240234375
			],
			"min":[
				-4.254501819610596,
				-4.287051200866699,
				-4.181469440460205
			],
			"type":"VEC3"
		},
		{
			"bufferView":21,
			"componentType":5126,
			"count":5300,
			"type":"VEC3"
		},
		{
			"bufferView":22,
			"componentType":5126,
			"count":5300,
			"type":"VEC2"
		},
		{
			"bufferView":23,
			"componentType":5123,
			"count":15072,
			"type":"SCALAR"
		},
		{
			"bufferView":24,
			"componentType":5126,
			"count":10520,
			"max":[
				4.490813255310059,
				2.544130325317383,
				5.012813091278076
			],
			"min":[
				-4.254502296447754,
				0.8576985597610474,
				-4.181469440460205
			],
			"type":"VEC3"
		},
		{
			"bufferView":25,
			"componentType":5126,
			"count":10520,
			"type":"VEC3"
		},
		{
			"bufferView":26,
			"componentType":5126,
			"count":10520,
			"type":"VEC2"
		},
		{
			"bufferView":27,
			"componentType":5123,
			"count":35616,
			"type":"SCALAR"
		},
		{
			"bufferView":28,
			"componentType":5126,
			"count":184,
			"max":[
				-15.425493240356445,
				8.331829071044922,
				19.016281127929688
			],
			"min":[
				-17.665019989013672,
				7.128202438354492,
				17.19641876220703
			],
			"type":"VEC3"
		},
		{
			"bufferView":29,
			"componentType":5126,
			"count":184,
			"type":"VEC3"
		},
		{
			"bufferView":30,
			"componentType":5126,
			"count":184,
			"type":"VEC2"
		},
		{
			"bufferView":31,
			"componentType":5123,
			"count":276,
			"type":"SCALAR"
		},
		{
			"bufferView":32,
			"componentType":5126,
			"count":10285,
			"max":[
				16.0826358795166,
				19.41588592529297,
				14.038747787475586
			],
			"min":[
				-5.95684289932251,
				14.911388397216797,
				-11.737434387207031
			],
			"type":"VEC3"
		},
		{
			"bufferView":33,
			"componentType":5126,
			"count":10285,
			"type":"VEC3"
		},
		{
			"bufferView":34,
			"componentType":5126,
			"count":10285,
			"type":"VEC2"
		},
		{
			"bufferView":35,
			"componentType":5123,
			"count":34104,
			"type":"SCALAR"
		},
		{
			"bufferView":36,
			"componentType":5126,
			"count":278,
			"max":[
				19.554244995117188,
				3.321758270263672,
				21.338563919067383
			],
			"min":[
				16.766427993774414,
				2.257373809814453,
				21.053197860717773
			],
			"type":"VEC3"
		},
		{
			"bufferView":37,
			"componentType":5126,
			"count":278,
			"type":"VEC3"
		},
		{
			"bufferView":38,
			"componentType":5126,
			"count":278,
			"type":"VEC2"
		},
		{
			"bufferView":39,
			"componentType":5123,
			"count":300,
			"type":"SCALAR"
		},
		{
			"bufferView":40,
			"componentType":5126,
			"count":1152,
			"max":[
				22.410551071166992,
				4.992860794067383,
				22.83005142211914
			],
			"min":[
				-20.853906631469727,
				-12.138099670410156,
				14.268531799316406
			],
			"type":"VEC3"
		},
		{
			"bufferView":41,
			"componentType":5126,
			"count":1152,
			"type":"VEC3"
		},
		{
			"bufferView":42,
			"componentType":5126,
			"count":1152,
			"type":"VEC2"
		},
		{
			"bufferView":43,
			"componentType":5123,
			"count":2706,
			"type":"SCALAR"
		},
		{
			"bufferView":44,
			"componentType":5126,
			"count":3090,
			"max":[
				11.839731216430664,
				-10.39493465423584,
				21.444629669189453
			],
			"min":[
				-12.16539192199707,
				-11.981796264648438,
				18.421829223632812
			],
			"type":"VEC3"
		},
		{
			"bufferView":45,
			"componentType":5126,
			"count":3090,
			"type":"VEC3"
		},
		{
			"bufferView":46,
			"componentType":5126,
			"count":3090,
			"type":"VEC2"
		},
		{
			"bufferView":47,
			"componentType":5123,
			"count":10512,
			"type":"SCALAR"
		},
		{
			"bufferView":48,
			"componentType":5126,
			"count":3513,
			"max":[
				10.805461883544922,
				6.71286678314209,
				17.96535301208496
			],
			"min":[
				-12.368274688720703,
				5.453963279724121,
				-4.444555759429932
			],
			"type":"VEC3"
		},
		{
			"bufferView":49,
			"componentType":5126,
			"count":3513,
			"type":"VEC3"
		},
		{
			"bufferView":50,
			"componentType":5126,
			"count":3513,
			"type":"VEC2"
		},
		{
			"bufferView":51,
			"componentType":5123,
			"count":9420,
			"type":"SCALAR"
		}
	],
	"bufferViews":[
		{
			"buffer":0,
			"byteLength":8376,
			"byteOffset":0,
			"target":34962
		},
		{
			"buffer":0,
			"byteLength":8376,
			"byteOffset":8376,
			"target":34962
		},
		{
			"buffer":0,
			"byteLength":5584,
			"byteOffset":16752,
			"target":34962
		},
		{
			"buffer":0,
			"byteLength":6240,
			"byteOffset":22336,
			"target":34963
		},
		{
			"buffer":0,
			"byteLength":210648,
			"byteOffset":28576,
			"target":34962
		},
		{
			"buffer":0,
			"byteLength":210648,
			"byteOffset":239224,
			"target":34962
		},
		{
			"buffer":0,
			"byteLength":140432,
			"byteOffset":449872,
			"target":34962
		},
		{
			"buffer":0,
			"byteLength":94656,
			"byteOffset":590304,
			"target":34963
		},
		{
			"buffer":0,
			"byteLength":13404,
			"byteOffset":684960,
			"target":34962
		},
		{
			"buffer":0,
			"byteLength":13404,
			"byteOffset":698364,
			"target":34962
		},
		{
			"buffer":0,
			"byteLength":8936,
			"byteOffset":711768,
			"target":34962
		},
		{
			"buffer":0,
			"byteLength":8400,
			"byteOffset":720704,
			"target":34963
		},
		{
			"buffer":0,
			"byteLength":7728,
			"byteOffset":729104,
			"target":34962
		},
		{
			"buffer":0,
			"byteLength":7728,
			"byteOffset":736832,
			"target":34962
		},
		{
			"buffer":0,
			"byteLength":5152,
			"byteOffset":744560,
			"target":34962
		},
		{
			"buffer":0,
			"byteLength":4200,
			"byteOffset":749712,
			"target":34963
		},
		{
			"buffer":0,
			"byteLength":56400,
			"byteOffset":753912,
			"target":34962
		},
		{
			"buffer":0,
			"byteLength":56400,
			"byteOffset":810312,
			"target":34962
		},
		{
			"buffer":0,
			"byteLength":37600,
			"byteOffset":866712,
			"target":34962
		},
		{
			"buffer":0,
			"byteLength":38304,
			"byteOffset":904312,
			"target":34963
		},
		{
			"buffer":0,
			"byteLength":63600,
			"byteOffset":942616,
			"target":34962
		},
		{
			"buffer":0,
			"byteLength":63600,
			"byteOffset":1006216,
			"target":34962
		},
		{
			"buffer":0,
			"byteLength":42400,
			"byteOffset":1069816,
			"target":34962
		},
		{
			"buffer":0,
			"byteLength":30144,
			"byteOffset":1112216,
			"target":34963
		},
		{
			"buffer":0,
			"byteLength":126240,
			"byteOffset":1142360,
			"target":34962
		},
		{
			"buffer":0,
			"byteLength":126240,
			"byteOffset":1268600,
			"target":34962
		},
		{
			"buffer":0,
			"byteLength":84160,
			"byteOffset":1394840,
			"target":34962
		},
		{
			"buffer":0,
			"byteLength":71232,
			"byteOffset":1479000,
			"target":34963
		},
		{
			"buffer":0,
			"byteLength":2208,
			"byteOffset":1550232,
			"target":34962
		},
		{
			"buffer":0,
			"byteLength":2208,
			"byteOffset":1552440,
			"target":34962
		},
		{
			"buffer":0,
			"byteLength":1472,
			"byteOffset":1554648,
			"target":34962
		},
		{
			"buffer":0,
			"byteLength":552,
			"byteOffset":1556120,
			"target":34963
		},
		{
			"buffer":0,
			"byteLength":123420,
			"byteOffset":1556672,
			"target":34962
		},
		{
			"buffer":0,
			"byteLength":123420,
			"byteOffset":1680092,
			"target":34962
		},
		{
			"buffer":0,
			"byteLength":82280,
			"byteOffset":1803512,
			"target":34962
		},
		{
			"buffer":0,
			"byteLength":68208,
			"byteOffset":1885792,
			"target":34963
		},
		{
			"buffer":0,
			"byteLength":3336,
			"byteOffset":1954000,
			"target":34962
		},
		{
			"buffer":0,
			"byteLength":3336,
			"byteOffset":1957336,
			"target":34962
		},
		{
			"buffer":0,
			"byteLength":2224,
			"byteOffset":1960672,
			"target":34962
		},
		{
			"buffer":0,
			"byteLength":600,
			"byteOffset":1962896,
			"target":34963
		},
		{
			"buffer":0,
			"byteLength":13824,
			"byteOffset":1963496,
			"target":34962
		},
		{
			"buffer":0,
			"byteLength":13824,
			"byteOffset":1977320,
			"target":34962
		},
		{
			"buffer":0,
			"byteLength":9216,
			"byteOffset":1991144,
			"target":34962
		},
		{
			"buffer":0,
			"byteLength":5412,
			"byteOffset":2000360,
			"target":34963
		},
		{
			"buffer":0,
			"byteLength":37080,
			"byteOffset":2005772,
			"target":34962
		},
		{
			"buffer":0,
			"byteLength":37080,
			"byteOffset":2042852,
			"target":34962
		},
		{
			"buffer":0,
			"byteLength":24720,
			"byteOffset":2079932,
			"target":34962
		},
		{
			"buffer":0,
			"byteLength":21024,
			"byteOffset":2104652,
			"target":34963
		},
		{
			"buffer":0,
			"byteLength":42156,
			"byteOffset":2125676,
			"target":34962
		},
		{
			"buffer":0,
			"byteLength":42156,
			"byteOffset":2167832,
			"target":34962
		},
		{
			"buffer":0,
			"byteLength":28104,
			"byteOffset":2209988,
			"target":34962
		},
		{
			"buffer":0,
			"byteLength":18840,
			"byteOffset":2238092,
			"target":34963
		}
	],
	"samplers":[
		{
			"magFilter":9729,
			"minFilter":9987
		}
	],
	"buffers":[
		{
			"byteLength":2256932,
			"uri":"printer.bin"
		}
	]
}
